<svg xmlns="http://www.w3.org/2000/svg" xmlns:xlink="http://www.w3.org/1999/xlink" fill="none" version="1.1" width="15.634092330932617" height="15.690922737121582" viewBox="0 0 15.634092330932617 15.690922737121582"><g style="mix-blend-mode:passthrough"><path d="M24.291612330932615,16.049713737121582C23.815182330932615,15.567998737121583,23.040882330932618,15.572223737121583,22.564172330932617,16.057103737121583L16.016651330932618,22.716822737121582C14.856446330932616,23.87702273712158,16.597164330932618,25.61774273712158,17.75737233093262,24.457532737121582L21.64164233093262,20.57326273712158C21.961362330932616,20.25354273712158,22.220552330932616,20.36184273712158,22.220552330932616,20.816922737121583L22.220552330932616,30.151122737121582C22.220552330932616,30.830822737121583,22.77152233093262,31.38182273712158,23.45132233093262,31.38182273712158C24.131112330932616,31.38182273712158,24.682082330932616,30.830822737121583,24.682082330932616,30.151122737121582L24.682082330932616,20.816922737121583C24.682082330932616,20.362632737121583,24.941312330932618,20.253612737121582,25.260942330932615,20.57326273712158L29.144892330932617,24.457532737121582C30.305492330932616,25.61774273712158,32.04579233093261,23.87702273712158,30.885592330932617,22.716822737121582L24.291612330932615,16.049713737121582Z" transform="matrix(-1,0,0,-1,31.268184661865234,31.381845474243164)" fill="#FFFFFF" fill-opacity="1"/></g></svg>