<svg xmlns="http://www.w3.org/2000/svg" xmlns:xlink="http://www.w3.org/1999/xlink" fill="none" version="1.1" width="17.880599975585938" height="27.594608306884766" viewBox="0 0 17.880599975585938 27.594608306884766"><g style="mix-blend-mode:passthrough"><path d="M8.9406,0C13.8699,0,17.8803,4.06852,17.8806,9.06987C17.8806,13.8147,14.2704,17.7173,9.6903,18.1053L9.6903,22.0299L13.197,22.0299C13.6113,22.0299,13.947,22.3705,13.947,22.7908C13.947,23.2111,13.6113,23.5517,13.197,23.5517L9.6903,23.5517L9.6903,26.8337C9.6903,27.254,9.3546,27.5946,8.9403,27.5946C8.526,27.5946,8.1903,27.254,8.1903,26.8337L8.1903,23.5517L4.6836,23.5517C4.2693,23.5517,3.9336,23.2111,3.9336,22.7908C3.9336,22.3705,4.2693,22.0299,4.6836,22.0299L8.1903,22.0299L8.1903,18.1053C3.6102,17.7173,0,13.8147,0,9.06987C0,4.06852,4.0107,0,8.9406,0ZM8.9406,1.52197C4.8378,1.52197,1.5,4.90815,1.5,9.0701C1.5,13.2321,4.8378,16.6182,8.9403,16.6182C13.0428,16.6182,16.3806,13.2321,16.3806,9.0701C16.3803,4.90815,13.0428,1.52197,8.9406,1.52197Z" fill-rule="evenodd" fill="#FFFFFF" fill-opacity="0.30000001192092896"/></g></svg>