<svg xmlns="http://www.w3.org/2000/svg" xmlns:xlink="http://www.w3.org/1999/xlink" fill="none" version="1.1" width="20.61429786682129" height="20.61615562438965" viewBox="0 0 20.61429786682129 20.61615562438965"><g style="mix-blend-mode:passthrough"><path d="M20.3974,0.216934C20.4687,0.288255,20.5222,0.371462,20.5578,0.459127C20.5935,0.546792,20.6143,0.641887,20.6143,0.742925L20.6143,5.88545C20.6143,6.29554,20.283,6.62837,19.8714,6.62837C19.4613,6.62837,19.1284,6.29554,19.1284,5.88545L19.1284,2.53634L15.7273,5.93894C18.6916,9.44703,18.5609,14.6965,15.2548,18.0025C13.5119,19.7454,11.2237,20.6162,8.93404,20.6162C6.64435,20.6162,4.35614,19.7454,2.61324,18.0025C-0.871079,14.5167,-0.871079,8.84526,2.61324,5.35946C5.91925,2.05493,11.1688,1.92269,14.6768,4.88696L18.078,1.48585L14.7303,1.48585C14.3188,1.48585,13.9874,1.15302,13.9874,0.742925C13.9874,0.331344,14.3188,0,14.7303,0L19.8714,0C19.9724,0,20.0675,0.0208019,20.1552,0.0564623C20.2428,0.0936085,20.326,0.145613,20.3974,0.216934ZM3.66412,16.9518C6.56895,19.8581,11.2999,19.8581,14.2047,16.9518C17.111,14.0455,17.111,9.31604,14.2047,6.40972C12.7516,4.95656,10.8423,4.22998,8.93442,4.22998C7.02659,4.22998,5.11728,4.95656,3.66412,6.40972C0.757795,9.31604,0.757795,14.0455,3.66412,16.9518Z" fill-rule="evenodd" fill="#FFFFFF" fill-opacity="0.30000001192092896"/></g></svg>