<svg xmlns="http://www.w3.org/2000/svg" xmlns:xlink="http://www.w3.org/1999/xlink" fill="none" version="1.1" width="32" height="32" viewBox="0 0 32 32"><g style="mix-blend-mode:passthrough"><g><g style="mix-blend-mode:passthrough"><ellipse cx="16" cy="16" rx="16" ry="16" fill="#4F5261" fill-opacity="1"/><ellipse cx="16" cy="16" rx="17.5" ry="17.5" fill-opacity="0" stroke-opacity="1" stroke="#222533" stroke-width="3" fill="none" stroke-dasharray=""/></g><g style="mix-blend-mode:passthrough"><g><g style="mix-blend-mode:passthrough"><g><g style="mix-blend-mode:passthrough"><path d="M12.86207,12.160002632141113L13.82759,10.240002632141113L18.17241,10.240002632141113L19.137900000000002,12.160002632141113L21.8459,12.160002632141113C22.4851,12.160002632141113,23,12.673122632141114,23,13.315002632141113L23,20.605002632141115C23,21.246902632141115,22.4851,21.760002632141113,21.8459,21.760002632141113L10.15408,21.760002632141113C9.514886,21.760002632141113,9,21.246902632141115,9,20.605002632141115L9,13.315002632141113C9,12.673122632141114,9.514862,12.160002632141113,10.15408,12.160002632141113L12.86207,12.160002632141113ZM18.65605,16.960082632141113C18.65605,15.502062632141113,17.4673,14.320082632141112,16.000880000000002,14.320082632141112C14.534500000000001,14.320082632141112,13.3457,15.502062632141113,13.3457,16.960082632141113C13.3457,18.418102632141114,14.534500000000001,19.600082632141113,16.000880000000002,19.600082632141113C17.4673,19.600082632141113,18.65605,18.418102632141114,18.65605,16.960082632141113Z" fill-rule="evenodd" fill="#FFFFFF" fill-opacity="1"/></g></g></g></g></g></g></g></svg>